<svg xmlns="http://www.w3.org/2000/svg" width="203" height="80" fill="none"><path fill="#FF842B" stroke="#000" d="M15.906 46.284c-.339-6.4 2.542-20.678 16.776-26.586 14.235-5.908 33.722-7.057 41.687-6.893-2.034 1.477-6.203 4.53-6.61 4.923-.406.394.848.82 1.526.985 5.253-.657 16.573-1.87 19.826-1.477 4.067.492 15.76-4.431 21.86-3.939 4.881.394 6.779.82 7.118.985-4.067.164-13.116 1.87-16.777 7.385 0 .492 21.86-1.477 29.994-4.431 8.134-2.954 22.877-5.416 32.536-1.477-5.423.328-17.386 1.97-21.86 5.908-5.592 4.923-13.726 10.832-19.826 15.263h-.001c-4.88 3.545-15.928 5.087-20.843 5.416 3.051.984 10.473 3.052 15.76 3.446 5.287.394 7.964 1.149 8.642 1.477-3.22-.164-11.286.098-17.793 2.462-6.507 2.363-15.929 2.954-19.826 2.954 1.242 1.07 4.173 3.076 7.415 3.996.925.095 1.681.253 2.244.435a12.768 12.768 0 0 1-2.244-.435c-4.093-.421-11.5.39-20.125 5.85-13.217 8.37-39.144 11.817-49.312 5.416-8.134-5.12-10.167-16.575-10.167-21.663Z"/><path fill="#FFE600" d="M40.308 27.575c-3.559-2.462-6.609-.492-11.184 3.939-2.717 2.462-1.017 7.385-1.017 8.37 0 .984-5.592.984-6.1 7.385-.509 6.4 7.117 5.416 7.117 6.893 1.22 5.908 6.27 7.713 8.642 7.877-2.033.657 2.033 4.431 5.084 5.416 8.134 2.626 13.895-3.775 15.25-7.385.848 0 3.458-.788 7.118-3.939 3.66-3.15.17-7.22-2.034-8.862.678-.164 2.644-.985 5.084-2.954 3.05-2.462 1.017-6.4-.508-8.37-1.525-1.97-2.034-2.462-2.542-6.893-.508-4.43-6.609-4.43-8.642-3.939-2.034.493-3.559-2.461-8.643-2.461-5.083 0-4.067 7.385-7.625 4.923Z"/><path fill="#3A3A3A" d="M56.451 27.498c-1.782-2.729-4.637-5.16-8.202-4.195-3.737 1.002-4.657 4.603-5.04 7.87-.115 1.02-1.763.927-1.84-.075-.69-9.595 12.15-13.177 16.06-4.083.23.557-.633 1.002-.958.483h-.02Z"/><path fill="#3A3A3A" d="M42.672 32.75c-.92-.65-2.089-1.15-3.104-.445-1.073.724-1.227 2.153-2.377 2.765-.345.186-.805.111-.958-.297-.67-1.726 1.17-3.823 2.702-4.547 1.802-.854 3.622-.167 5.002 1.095.92.835-.249 2.134-1.245 1.43h-.02Z"/><path fill="#3A3A3A" d="M41.197 28.407c-1.783-.427-3.143-1.355-5.079-1.058-2.165.334-4.101 1.652-5.48 3.248-1.361 1.578-2.281 3.545-2.396 5.605-.115 2.246 1.322 3.768 1.648 5.847.076.52-.537.91-.997.686-2.261-1.095-2.874-4.51-2.702-6.737.173-2.543 1.38-4.974 3.162-6.848 2.53-2.655 9.793-5.977 12.304-1.411.172.297-.02.78-.441.687l-.02-.019Z"/><path fill="#3A3A3A" d="M31.097 40.62c-.172.575-.402 1.169-.498 1.763-.096.482.057.965-.058 1.429-.115.39-.498.52-.862.297-1.15-.742-.172-2.933.23-3.86.268-.632 1.399-.298 1.188.37Z"/><path fill="#3A3A3A" d="M27.992 40.805c-2.74 1.318-4.925 3.86-4.81 6.942.154 3.712 3.546 4.88 6.842 5.14 1.054.075.977 1.801-.077 1.801-4.177-.019-8.279-2.134-8.604-6.552-.288-3.804 2.453-7.48 6.228-8.407.747-.186 1.092.742.402 1.076h.02Z"/><path fill="#3A3A3A" d="M30.848 51.31c-1.016 3.267-1.13 6.348 2.28 8.278 3.105 1.763 6.516 1.04 9.41-.724 1.054-.63 2.012.742 1.093 1.522-3.297 2.747-8.471 2.895-12.036.538-3.487-2.301-4.465-6.811-2.05-10.208.402-.575 1.514-.093 1.303.594Z"/><path fill="#3A3A3A" d="M38.245 60.943c1.093 4.566 3.967 6.719 8.95 6.05 5.213-.705 9.046-4.157 10.08-9.131.269-1.28 2.185-.928 2.032.352-.728 6.107-6.516 10.376-12.63 10.821-4.752.353-10.865-2.45-9.639-7.98.115-.539 1.073-.743 1.227-.112h-.02ZM55.934 24.472c2.549-1.707 5.75-1.076 7.991.928 1.936 1.745 4.025 6.2 1.706 8.39-.44.408-1.092.204-1.207-.372-.23-1.15.287-2.283.057-3.489-.23-1.206-.862-2.32-1.763-3.174-1.629-1.54-4.063-2.078-6.21-1.225-.67.279-1.168-.686-.574-1.076v.018Z"/><path fill="#3A3A3A" d="M61.32 31.302c5.25-.612 9.217 3.842 9.294 8.687.076 4.194-4.561 10.505-9.544 8.222-.44-.205-.575-.91-.096-1.17 1.86-.983 4.005-.723 5.654-2.264 1.341-1.262 1.954-3.081 1.935-4.844-.038-4.232-3.124-6.849-7.301-7.053-.959-.056-.825-1.485.057-1.578Z"/><path fill="#3A3A3A" d="M64.328 47.32c2.99 1.355 3.948 4.881 2.798 7.74-1.38 3.451-5.098 5.642-8.777 6.05-1.4.148-1.533-1.82-.211-2.079 2.779-.538 5.52-1.8 6.88-4.38 1.36-2.58.21-4.417-1.476-6.459-.402-.483.23-1.114.767-.872h.019ZM55.819 32.268c2.223.965 3.91 2.932 3.526 5.4-.345 2.265-2.491 4.64-4.906 4.845-.709.055-.958-.78-.46-1.188 1.38-1.114 3.047-1.67 3.641-3.49.633-1.948-.728-3.489-2.338-4.472-.651-.409-.21-1.43.537-1.095ZM59.288 44.313c1.188 1.02 1.782 2.246 1.495 3.805-.269 1.466-1.208 2.932-2.626 3.545-.46.204-.843-.316-.67-.705.42-.966 1.226-1.69 1.59-2.692.422-1.132.038-2.227-.652-3.192-.383-.52.364-1.206.863-.761ZM40.162 42.513c-.69 1.856-1.15 3.6.134 5.364 1.265 1.726 3.028 1.633 4.849 2.375.536.223.383.872-.058 1.095-2.338 1.132-5.328-.872-6.497-2.784-1.245-2.023-1.322-4.992.537-6.7.517-.483 1.284 0 1.035.65ZM54.056 48.396c-.25.928-.652 1.652-1.457 2.246-.69.501-1.705 1.002-2.472.445-.268-.185-.23-.538-.057-.78.364-.5 1.015-.5 1.533-.834.536-.353.996-.891 1.303-1.43.307-.556 1.342-.315 1.15.353ZM54.113 57.862c-.421 1.373-1.054 2.32-2.453 2.932-1.264.557-2.97.761-4.254.149-.383-.186-.402-.798.038-.928 1.016-.316 2.108-.186 3.124-.501 1.016-.297 1.897-1.095 2.357-2.023.288-.594 1.38-.316 1.17.37h.018ZM50.415 37.186c-2.185-1.04-4.216-.464-6.516-.446-.422 0-.805-.612-.326-.853 2.472-1.262 5.251-1.448 7.59.167.65.445-.058 1.466-.748 1.132Z"/><path fill="#3A3A3A" d="M74.006 13.15c-12.38.966-25.776.65-37.39 5.457-13.223 5.476-22.824 18.857-19.777 33.019 6.88 32.071 47.374 15.813 66.845 6.477.556-.278 1.035.631.517.947-19.643 11.822-61.977 25.965-69.22-6.886-2.454-11.117 2.548-22.402 11.42-29.548 13.263-10.672 31.392-9.484 47.547-10.282.537-.018.633.78.077.817h-.02Z"/><path fill="#3A3A3A" d="M75.405 13.689c-2.492 1.244-4.81 2.58-7.091 4.139-.402.278-.881-.241-.575-.613 1.82-2.19 4.657-3.452 7.263-4.584.69-.297 1.054.724.403 1.058ZM68.946 18.162c8.893-2.042 17.823-.78 26.85-3.007 7.588-1.874 14.583-3.805 22.326-1.466.632.186.498 1.15-.192 1.002-9.505-1.949-17.343.928-26.485 2.858-7.435 1.578-14.89.056-22.326 1.337-.422.074-.594-.631-.173-.724Z"/><path fill="#3A3A3A" d="M118.083 14.691c-3.411.13-14.698 3.656-16.251 7.573-.287.705-1.38.204-1.111-.501.057-.149.096-.297.153-.446.096-.334.364-.538.728-.501 21.867 2.71 41.778-14.198 63.415-5.345.498.204.249 1.058-.288.91-13.606-4.028-25.105-.947-38.29 2.895-2.051.593-25.048 4.324-24.588 3.006-.21.631-1.36.279-1.149-.352 1.552-4.752 12.667-8.278 17.305-8.204.651 0 .766.965.096 1.002l-.02-.037Z"/><path fill="#3A3A3A" d="M164.001 16.659c-15.312-.056-25.814 7.943-36.565 17.372-8.816 7.758-16.597 8.222-28.095 9.484-.67.074-.958-.984-.268-1.15 7.397-1.894 14.756-.929 21.54-5.068 5.021-3.062 8.739-7.628 13.3-11.228 8.375-6.645 19.183-11.248 30.126-10.153.441.037.422.761-.038.761v-.018Z"/><path fill="#3A3A3A" d="M100.816 41.38c8.107 5.309 19.299.594 26.735 6.682.364.297 0 .854-.441.668-8.835-3.712-19.126-.78-27.233-6.254-.785-.52.173-1.597.959-1.095h-.02Z"/><path fill="#3A3A3A" d="M126.573 48.619c-8.125-2.097-14.718 1.708-22.384 3.508-5.921 1.392-12.456 1.782-18.55 2.078-.518.02-.614-.612-.192-.816 6.65-3.304 16.136-2.209 23.418-4.325 6.171-1.781 11.748-3.637 17.996-1.355.517.186.249 1.04-.288.91Z"/><path fill="#3A3A3A" d="M87.287 53.129c3.87 1.782 7.972 2.19 11.958 3.508.383.13.268.798-.134.78-4.063-.056-8.758-1.374-12.284-3.323-.614-.334-.173-1.3.479-.983l-.02.018Z"/><path fill="#3A3A3A" d="M99.398 58.252c-3.104-.26-6.113-.539-9.237-.26-2.932.26-5.692 1.095-8.566 1.652-.46.092-.728-.613-.307-.836 5.06-2.654 12.802-3.025 18.264-1.392.536.167.421.873-.154.836ZM49.38 12.742C63.964 10.682 77.839-.509 92.92 2.497c.595.112.442.965-.172.91-15.79-1.485-27.941 10.19-43.292 10.245-.594 0-.69-.817-.095-.91h.019Z"/><path fill="#3A3A3A" d="M92.978 3.333c-2.089.928-7.186 5.215-8.317 4.77.613.24 2.875-1.021 3.469-1.263 5.826-2.338 12.61-3.433 18.819-4.268 12.763-1.745 27.386-2.32 39.517 2.56.498.205.23 1.04-.288.892-11.422-3.323-23.112-3.898-34.936-2.71-6.133.612-12.227 1.633-18.187 3.248-2.146.575-6.593 1.058-8.24 2.635-.307.297-.978.112-.844-.39.862-3.136 5.96-5.14 8.739-6.217.498-.204.767.538.288.761l-.02-.018Z"/><path fill="#3A3A3A" d="M146.427 6.024c-3.928 1.002-7.857 2.765-11.843 3.415-.441.074-.709-.594-.307-.798 3.507-1.893 7.972-2.951 11.92-3.601.575-.093.805.835.23.984Z"/><path fill="#3A3A3A" d="M132.514 10.033c23.457-6.626 46.665 5.605 69.969 7.442.421.037.402.743-.039.743-23.993-.39-45.4-12.398-69.757-7.461-.422.092-.595-.613-.173-.724Z"/><path fill="#3A3A3A" d="M201.62 18.7c-12.418-.297-22.518 6.2-34.265 8.816-10.847 2.395-22.978 1.726-31.851 9.169-.518.427-1.304-.39-.805-.872 7.205-6.96 18.225-7.202 27.673-8.798 13.472-2.283 25.316-9.93 39.286-9.243.537.019.499.947-.038.928Z"/><path fill="#3A3A3A" d="M135.944 35.2c4.906.186 10.828.928 15.178 3.248.441.241.25.89-.268.817-2.549-.371-5.04-1.3-7.57-1.838-2.434-.5-4.906-.798-7.378-1.04-.69-.073-.651-1.224.058-1.206l-.02.019Z"/><path fill="#3A3A3A" d="M151.199 38.764c-9.16.65-13.664 8.983-21.138 12.899-7.11 3.73-15.715 4.51-23.649 4.918-.536.019-.785-.798-.21-.928 10.597-2.413 20.448-2.171 29.206-9.577 4.791-4.064 8.988-8.37 15.714-8.37.69 0 .805 1.002.096 1.039l-.019.019Z"/><path fill="#3A3A3A" d="M109.421 55.95c2.204 1.54 4.638 2.728 6.823 4.306.479.334.076 1.077-.479.984-17.344-2.988-33.634 5.067-50.69 5.605-.498 0-.766-.742-.21-.891 11.057-2.71 22.843-4.826 34.17-6.013.076 0 14.698-.91 14.602-.168 0-.148-4.427-2.394-5.021-3.136-.402-.501.326-1.04.805-.705v.018ZM50.702 14.134c-1.284.186-2.472.539-3.775.631-.537.038-.575-.686-.077-.78 1.265-.259 2.453-.704 3.737-.871.69-.093.767.928.096 1.02h.02ZM43.745 12.26c-7.282 1.912-13.76 4.287-19.796 8.742-.383.278-.9-.26-.575-.613 5.04-5.364 13.108-7.201 20.084-8.871.498-.112.786.612.288.742ZM19.618 25.697a6.42 6.42 0 0 0-2.146 1.745c-.575.705-.92 1.54-1.438 2.283-.287.408-.862.037-.824-.371.23-2.005 2.089-3.768 3.852-4.622.575-.278 1.112.687.537.984l.019-.019ZM10.4 47.023c.69 4.473 1.322 9.168 2.951 13.419 2.185 5.735 6.037 8.593 11.441 11.396.46.24.268 1.002-.287.872-12.131-2.988-13.837-15.46-14.91-25.613-.058-.501.728-.575.805-.074ZM81.48 67.699c-14.91 2.45-30.241 10.226-45.61 8.24-.576-.074-.557-1.02.037-1.02 15.926.334 29.839-7.573 45.477-8.148.613-.019.69.816.096.91v.018ZM35.965 79.985c-2.223 0-4.6-.538-6.765-.983-.498-.112-.48-.817.038-.873 2.223-.278 4.561.65 6.784.836.594.055.556 1.039-.038 1.039l-.02-.019ZM75.654.975C66.8 2.46 59.345 8.437 50.357 9.197c-.46.038-.67-.686-.191-.798C58.924 6.376 66.627 1.31 75.558.01c.652-.093.728.873.096.965ZM9.672 34.05c-1.687 7.59-5.309 13.79-1.687 21.492.21.464-.46.724-.766.39-5.232-6.144-.69-15.684 1.475-22.18.173-.538 1.093-.24.978.297ZM2.427 44.406c-.364 1.132-.632 2.283-.651 3.47 0 1.04.23 2.024.287 3.044.02.483-.632.613-.843.186-1.016-2.172-.498-4.844.268-6.997.173-.501 1.112-.223.94.297ZM5.685 58.122c2.32 6.384 5.769 11.117 11.786 14.662.46.278.154.91-.364.724-6.63-2.394-10.348-8.872-12.284-15.09-.172-.538.67-.853.862-.315v.019ZM169.367 32.75c-5.194.074-9.678 1.206-14.699 2.32-.556.13-.824-.557-.307-.816 4.389-2.135 10.196-2.914 15.044-2.469.556.056.537.965-.038.965Z"/></svg>