<svg xmlns="http://www.w3.org/2000/svg" width="203" height="80" fill="none"><path fill="#FF842B" stroke="#000" d="M15.916 46.28c-.339-6.4 2.542-20.678 16.777-26.586 14.234-5.908 33.722-7.057 41.686-6.893-2.034 1.477-6.202 4.53-6.609 4.923-.406.394.847.82 1.525.985 5.253-.656 16.573-1.87 19.827-1.477 4.067.492 15.759-4.431 21.86-3.939 4.88.394 6.778.82 7.117.985-4.067.164-13.116 1.87-16.776 7.385 0 .492 21.86-1.477 29.993-4.431 8.134-2.954 22.877-5.416 32.536-1.477-5.422.328-17.386 1.97-21.86 5.908-5.592 4.924-13.726 10.832-19.826 15.263-4.881 3.545-15.929 5.087-20.843 5.416 3.05.984 10.472 3.052 15.759 3.446 5.287.394 7.965 1.149 8.642 1.477-3.219-.164-11.285.098-17.793 2.462-6.507 2.363-15.928 2.954-19.826 2.954 1.243 1.07 4.173 3.076 7.416 3.996.925.095 1.68.253 2.243.435a12.76 12.76 0 0 1-2.243-.435c-4.094-.421-11.5.39-20.125 5.85-13.218 8.37-39.145 11.817-49.312 5.416-8.134-5.12-10.168-16.575-10.168-21.663Z"/><path fill="#FFE600" d="M40.318 27.571c-3.558-2.462-6.609-.492-11.184 3.939-2.717 2.462-1.017 7.385-1.017 8.37 0 .984-5.592.984-6.1 7.385-.509 6.4 7.117 5.416 7.117 6.893 1.22 5.908 6.27 7.713 8.642 7.877-2.033.657 2.034 4.431 5.084 5.416 8.134 2.626 13.895-3.775 15.251-7.385.847 0 3.457-.788 7.117-3.939 3.66-3.15.17-7.22-2.033-8.862.678-.164 2.643-.985 5.083-2.954 3.05-2.462 1.017-6.4-.508-8.37-1.525-1.97-2.033-2.462-2.542-6.893-.508-4.43-6.608-4.43-8.642-3.938-2.033.492-3.559-2.462-8.642-2.462-5.084 0-4.067 7.385-7.626 4.923Z"/><path fill="#3A3A3A" d="M56.462 27.494c-1.783-2.729-4.638-5.16-8.203-4.195-3.737 1.002-4.657 4.603-5.04 7.87-.115 1.02-1.763.927-1.84-.075-.69-9.595 12.15-13.177 16.06-4.083.23.557-.632 1.002-.958.483h-.02Z"/><path fill="#3A3A3A" d="M42.683 32.746c-.92-.65-2.09-1.15-3.105-.445-1.073.724-1.227 2.153-2.376 2.765-.345.186-.805.111-.959-.297-.67-1.726 1.17-3.823 2.703-4.547 1.801-.854 3.622-.167 5.002 1.095.92.835-.25 2.134-1.246 1.43h-.02Z"/><path fill="#3A3A3A" d="M41.207 28.403c-1.782-.427-3.143-1.355-5.078-1.058-2.166.334-4.102 1.652-5.481 3.248-1.361 1.578-2.281 3.545-2.396 5.605-.115 2.246 1.322 3.768 1.648 5.847.077.52-.537.91-.996.686-2.262-1.095-2.875-4.51-2.703-6.737.173-2.543 1.38-4.974 3.163-6.849 2.53-2.654 9.792-5.976 12.303-1.41.172.297-.02.78-.44.687l-.02-.019Z"/><path fill="#3A3A3A" d="M31.107 40.616c-.172.575-.402 1.169-.498 1.763-.096.482.058.965-.057 1.429-.115.39-.499.52-.863.297-1.15-.742-.172-2.933.23-3.86.268-.632 1.4-.297 1.188.37Z"/><path fill="#3A3A3A" d="M28.003 40.801c-2.74 1.318-4.925 3.86-4.81 6.942.153 3.712 3.545 4.881 6.841 5.14 1.054.075.978 1.801-.076 1.801-4.178-.018-8.28-2.134-8.605-6.551-.288-3.805 2.453-7.48 6.228-8.408.748-.186 1.093.742.403 1.076h.019Z"/><path fill="#3A3A3A" d="M30.858 51.306c-1.015 3.267-1.13 6.348 2.28 8.278 3.105 1.763 6.517 1.04 9.41-.724 1.054-.63 2.013.743 1.093 1.522-3.296 2.747-8.47 2.895-12.035.538-3.488-2.301-4.466-6.811-2.05-10.208.402-.575 1.513-.093 1.302.594Z"/><path fill="#3A3A3A" d="M38.256 60.939c1.092 4.566 3.967 6.719 8.95 6.05 5.212-.705 9.045-4.157 10.08-9.131.268-1.28 2.184-.928 2.031.353-.728 6.106-6.516 10.375-12.629 10.82-4.753.353-10.866-2.45-9.64-7.98.115-.539 1.074-.743 1.227-.112h-.02ZM55.944 24.468c2.55-1.707 5.75-1.076 7.992.928 1.935 1.745 4.024 6.2 1.705 8.39-.44.408-1.092.204-1.207-.372-.23-1.15.287-2.283.057-3.489-.23-1.206-.862-2.32-1.763-3.174-1.629-1.54-4.063-2.079-6.209-1.225-.67.279-1.169-.686-.575-1.076v.018Z"/><path fill="#3A3A3A" d="M61.33 31.299c5.25-.613 9.217 3.841 9.294 8.685.077 4.195-4.561 10.505-9.544 8.223-.44-.205-.575-.91-.096-1.17 1.86-.983 4.006-.724 5.654-2.264 1.341-1.262 1.955-3.08 1.935-4.844-.038-4.232-3.123-6.849-7.301-7.053-.958-.056-.824-1.485.057-1.577Z"/><path fill="#3A3A3A" d="M64.338 47.316c2.99 1.355 3.948 4.881 2.798 7.74-1.38 3.451-5.098 5.642-8.777 6.05-1.4.148-1.533-1.82-.21-2.079 2.778-.538 5.518-1.8 6.88-4.38 1.36-2.58.21-4.417-1.476-6.459-.403-.483.23-1.114.766-.872h.02ZM55.83 32.264c2.222.965 3.909 2.932 3.525 5.4-.345 2.265-2.49 4.64-4.906 4.845-.709.055-.958-.78-.46-1.188 1.38-1.114 3.047-1.67 3.642-3.49.632-1.948-.729-3.489-2.338-4.472-.652-.409-.211-1.43.536-1.095ZM59.298 44.309c1.188 1.02 1.782 2.246 1.495 3.805-.268 1.466-1.207 2.932-2.626 3.545-.46.204-.843-.316-.67-.706.421-.965 1.226-1.689 1.59-2.69.422-1.133.038-2.228-.651-3.193-.384-.52.364-1.206.862-.761ZM40.172 42.509c-.69 1.856-1.15 3.6.134 5.364 1.265 1.726 3.028 1.633 4.849 2.375.536.223.383.873-.058 1.095-2.338 1.132-5.327-.872-6.496-2.784-1.246-2.023-1.323-4.992.536-6.7.518-.483 1.284 0 1.035.65ZM54.066 48.392c-.249.928-.651 1.652-1.456 2.246-.69.501-1.706 1.002-2.472.446-.269-.186-.23-.539-.058-.78.364-.501 1.016-.501 1.533-.835.537-.353.997-.891 1.303-1.43.307-.556 1.342-.315 1.15.353ZM54.124 57.858c-.422 1.373-1.054 2.32-2.453 2.932-1.265.557-2.97.761-4.255.149-.383-.186-.402-.798.039-.928 1.015-.316 2.108-.186 3.123-.501 1.016-.297 1.898-1.095 2.357-2.023.288-.594 1.38-.316 1.17.37h.019ZM50.425 37.182c-2.185-1.04-4.216-.464-6.516-.445-.421 0-.805-.613-.326-.854 2.473-1.262 5.251-1.448 7.59.167.651.445-.058 1.466-.748 1.132Z"/><path fill="#3A3A3A" d="M74.016 13.147c-12.38.965-25.776.65-37.39 5.456C23.405 24.08 13.803 37.46 16.85 51.622c6.88 32.071 47.374 15.813 66.845 6.477.556-.278 1.035.631.517.947-19.643 11.822-61.977 25.965-69.22-6.886-2.454-11.117 2.548-22.402 11.421-29.548C39.674 11.94 57.803 13.128 73.96 12.33c.536-.018.632.78.076.817h-.019Z"/><path fill="#3A3A3A" d="M75.415 13.685c-2.491 1.244-4.81 2.58-7.09 4.139-.403.278-.882-.241-.576-.613 1.821-2.19 4.657-3.452 7.264-4.584.69-.297 1.054.724.402 1.058ZM68.957 18.158c8.892-2.042 17.822-.78 26.849-3.007 7.589-1.874 14.584-3.804 22.326-1.466.633.186.498 1.15-.192 1.002-9.505-1.948-17.343.928-26.484 2.859-7.436 1.577-14.891.055-22.327 1.336-.421.074-.594-.631-.172-.724Z"/><path fill="#3A3A3A" d="M118.094 14.687c-3.411.13-14.699 3.657-16.251 7.573-.288.705-1.38.204-1.112-.501.058-.149.096-.297.153-.446.096-.334.364-.538.729-.501 21.866 2.71 41.778-14.198 63.414-5.345.498.204.249 1.058-.288.91-13.606-4.028-25.105-.947-38.29 2.895-2.05.594-25.047 4.324-24.587 3.006-.211.631-1.361.279-1.15-.352 1.552-4.752 12.667-8.278 17.305-8.204.652 0 .767.965.096 1.002l-.019-.037Z"/><path fill="#3A3A3A" d="M164.011 16.655c-15.312-.056-25.814 7.943-36.565 17.372-8.816 7.758-16.596 8.222-28.095 9.484-.67.074-.958-.984-.268-1.15 7.397-1.894 14.756-.929 21.54-5.068 5.021-3.062 8.739-7.628 13.3-11.229 8.375-6.644 19.184-11.247 30.127-10.152.44.037.421.761-.039.761v-.018Z"/><path fill="#3A3A3A" d="M100.827 41.377c8.106 5.308 19.298.593 26.734 6.681.364.297 0 .854-.441.668-8.835-3.712-19.126-.78-27.232-6.254-.786-.52.172-1.596.958-1.095h-.019Z"/><path fill="#3A3A3A" d="M126.584 48.615c-8.126-2.097-14.719 1.707-22.384 3.508-5.922 1.392-12.457 1.782-18.551 2.079-.518.018-.614-.613-.192-.817 6.65-3.304 16.136-2.209 23.419-4.325 6.171-1.781 11.747-3.637 17.995-1.354.517.185.249 1.039-.287.909Z"/><path fill="#3A3A3A" d="M87.297 53.125c3.871 1.782 7.972 2.19 11.958 3.508.384.13.269.798-.134.78-4.063-.056-8.758-1.374-12.284-3.323-.613-.334-.172-1.299.48-.984l-.02.019Z"/><path fill="#3A3A3A" d="M99.409 58.248c-3.105-.26-6.114-.539-9.238-.26-2.932.26-5.691 1.095-8.566 1.652-.46.092-.728-.613-.306-.836 5.059-2.654 12.801-3.025 18.263-1.392.537.168.422.873-.153.836ZM49.39 12.738C63.974 10.678 77.85-.513 92.931 2.493c.594.112.441.965-.172.91-15.792-1.485-27.942 10.19-43.292 10.245-.594 0-.69-.817-.096-.91h.02Z"/><path fill="#3A3A3A" d="M92.989 3.329c-2.09.928-7.187 5.215-8.318 4.77.614.24 2.875-1.021 3.47-1.263 5.825-2.338 12.609-3.433 18.818-4.268 12.764-1.745 27.386-2.32 39.517 2.56.498.205.23 1.04-.288.892-11.421-3.322-23.112-3.898-34.936-2.71-6.132.612-12.227 1.633-18.187 3.248-2.146.575-6.592 1.058-8.24 2.636-.307.296-.978.11-.844-.39.863-3.137 5.96-5.141 8.74-6.218.498-.204.766.538.287.761l-.02-.018Z"/><path fill="#3A3A3A" d="M146.438 6.02c-3.929 1.002-7.858 2.765-11.844 3.415-.441.074-.709-.594-.307-.798 3.508-1.893 7.973-2.951 11.921-3.601.575-.093.804.835.23.984Z"/><path fill="#3A3A3A" d="M132.524 10.029c23.457-6.626 46.665 5.605 69.969 7.442.421.037.402.743-.038.743-23.994-.39-45.4-12.398-69.758-7.461-.422.092-.594-.613-.173-.724Z"/><path fill="#3A3A3A" d="M201.63 18.696c-12.418-.297-22.517 6.2-34.265 8.816-10.847 2.395-22.978 1.726-31.851 9.169-.517.427-1.303-.39-.805-.872 7.206-6.96 18.225-7.202 27.673-8.798 13.473-2.283 25.316-9.93 39.287-9.243.536.019.498.947-.039.928Z"/><path fill="#3A3A3A" d="M135.955 35.196c4.906.186 10.827.928 15.178 3.248.441.241.249.89-.269.817-2.548-.372-5.04-1.3-7.569-1.838-2.434-.5-4.906-.798-7.379-1.04-.689-.073-.651-1.224.058-1.206l-.019.02Z"/><path fill="#3A3A3A" d="M151.209 38.76c-9.16.65-13.664 8.983-21.138 12.899-7.11 3.73-15.714 4.51-23.648 4.918-.537.019-.786-.798-.211-.928 10.598-2.413 20.448-2.171 29.206-9.577 4.791-4.064 8.988-8.37 15.715-8.37.69 0 .805 1.002.096 1.039l-.02.019Z"/><path fill="#3A3A3A" d="M109.432 55.946c2.203 1.54 4.637 2.729 6.822 4.306.479.334.077 1.077-.479.984-17.344-2.988-33.633 5.067-50.69 5.605-.498 0-.766-.742-.21-.891 11.058-2.71 22.844-4.826 34.17-6.013.076 0 14.698-.91 14.603-.167 0-.149-4.427-2.395-5.021-3.137-.403-.501.325-1.04.805-.705v.018ZM50.712 14.13c-1.284.186-2.472.539-3.775.631-.537.038-.575-.686-.077-.779 1.265-.26 2.453-.705 3.737-.872.69-.093.767.928.096 1.02h.02ZM43.756 12.256c-7.283 1.912-13.76 4.287-19.797 8.742-.383.278-.9-.26-.575-.613 5.04-5.364 13.109-7.201 20.084-8.872.499-.11.786.613.288.743ZM19.628 25.693a6.42 6.42 0 0 0-2.146 1.745c-.575.705-.92 1.54-1.438 2.283-.287.408-.862.037-.824-.371.23-2.005 2.09-3.768 3.852-4.622.575-.278 1.112.687.537.984l.02-.019ZM10.41 47.019c.69 4.473 1.322 9.169 2.951 13.419 2.185 5.735 6.037 8.593 11.441 11.396.46.24.269 1.002-.287.872-12.131-2.988-13.837-15.46-14.91-25.613-.057-.501.728-.575.805-.074ZM81.49 67.695c-14.91 2.45-30.24 10.226-45.61 8.24-.576-.074-.556-1.02.038-1.02 15.925.334 29.838-7.573 45.476-8.148.614-.019.69.816.096.91v.018ZM35.975 79.981c-2.223 0-4.6-.538-6.765-.983-.498-.112-.479-.817.038-.873 2.224-.278 4.562.65 6.785.836.594.055.555 1.039-.039 1.039l-.019-.019ZM75.664.971C66.81 2.456 59.355 8.433 50.367 9.193c-.46.038-.67-.686-.191-.798 8.758-2.023 16.462-7.09 25.392-8.389.652-.093.729.873.096.965ZM9.682 34.045c-1.687 7.591-5.309 13.79-1.687 21.493.211.464-.46.724-.766.39-5.232-6.144-.69-15.684 1.475-22.18.173-.538 1.093-.24.978.297ZM2.438 44.402c-.364 1.132-.633 2.283-.652 3.47 0 1.04.23 2.024.288 3.044.019.483-.633.613-.844.186-1.015-2.171-.498-4.844.269-6.997.172-.501 1.111-.223.939.297ZM5.696 58.118c2.319 6.384 5.768 11.117 11.786 14.662.46.278.153.91-.364.724-6.631-2.394-10.349-8.872-12.285-15.09-.172-.538.671-.853.863-.315v.019ZM169.377 32.746c-5.193.074-9.678 1.207-14.699 2.32-.556.13-.824-.557-.306-.817 4.388-2.134 10.195-2.913 15.044-2.468.555.056.536.965-.039.965Z"/></svg>